simulation
nRows=63
nColumns=15
endheader
time  TH_x TH_y TH_z SC_y  SC_z  SC_x  AC_y  AC_z  AC_x  GH_y  GH_z  GH_yy  EL_x  PS_y
0.027905  0.000000  0.000000  0.000000  -24.477116  4.740030  -0.376876  39.529952  7.042047  -3.705676  35.196770  10.464690  -33.641600  7.497602  0.000000
0.028274  0.000000  0.000000  0.000000  -24.551211  4.702823  -0.372310  39.479190  7.090607  -3.753480  35.567614  10.501200  -34.007554  7.552299  0.000000
0.028643  0.000000  0.000000  0.000000  -24.626361  4.665274  -0.366166  39.428279  7.138855  -3.799882  35.925703  10.536350  -34.359984  7.607974  0.000000
0.029012  0.000000  0.000000  0.000000  -24.702274  4.627409  -0.358994  39.378129  7.186879  -3.845653  36.274465  10.570842  -34.703624  7.664554  0.000000
0.029381  0.000000  0.000000  0.000000  -24.778659  4.589254  -0.351353  39.329726  7.234790  -3.891611  36.617381  10.605408  -35.043272  7.721940  0.000000
0.029806  0.000000  0.000000  0.000000  -24.867032  4.544905  -0.342621  39.277319  7.290081  -3.945900  37.009925  10.646278  -35.435933  7.789015  0.000000
0.030232  0.000000  0.000000  0.000000  -24.955351  4.500252  -0.334558  39.229855  7.345523  -4.002477  37.402574  10.688992  -35.834253  7.856847  0.000000
0.030658  0.000000  0.000000  0.000000  -25.043444  4.455328  -0.327462  39.188253  7.401196  -4.061918  37.796977  10.733982  -36.240683  7.925294  0.000000
0.031084  0.000000  0.000000  0.000000  -25.131330  4.410155  -0.321251  39.152883  7.457076  -4.124251  38.192306  10.781165  -36.654362  7.994266  0.000000
0.031510  0.000000  0.000000  0.000000  -25.219204  4.364745  -0.315484  39.123554  7.513025  -4.188952  38.585401  10.829954  -37.071322  8.063739  0.000000
0.031935  0.000000  0.000000  0.000000  -25.307381  4.319099  -0.309475  39.099657  7.568812  -4.255091  38.971506  10.879398  -37.485479  8.133750  0.000000
0.032361  0.000000  0.000000  0.000000  -25.396214  4.273214  -0.302453  39.080397  7.624146  -4.321552  39.345282  10.928399  -37.890007  8.204377  0.000000
0.032787  0.000000  0.000000  0.000000  -25.486022  4.227087  -0.293718  39.065035  7.678713  -4.387255  39.701682  10.975919  -38.278564  8.275720  0.000000
0.033213  0.000000  0.000000  0.000000  -25.577040  4.180719  -0.282727  39.053052  7.732202  -4.451298  40.036458  11.021117  -38.646006  8.347881  0.000000
0.033646  0.000000  0.000000  0.000000  -25.670941  4.133348  -0.268876  39.044115  7.785161  -4.514011  40.351148  11.064065  -38.993985  8.422158  0.000000
0.034078  0.000000  0.000000  0.000000  -25.766292  4.085745  -0.252143  39.038553  7.836417  -4.573882  40.637423  11.103633  -39.313672  8.497445  0.000000
0.034511  0.000000  0.000000  0.000000  -25.863068  4.037926  -0.232502  39.036768  7.885705  -4.630690  40.893366  11.139677  -39.603575  8.573790  0.000000
0.034944  0.000000  0.000000  0.000000  -25.961188  3.989911  -0.210051  39.039381  7.932789  -4.684399  41.117646  11.172235  -39.863061  8.651212  0.000000
0.035377  0.000000  0.000000  0.000000  -26.060532  3.941724  -0.184966  39.047120  7.977457  -4.735106  41.309463  11.201480  -40.092140  8.729699  0.000000
0.035809  0.000000  0.000000  0.000000  -26.160969  3.893393  -0.157459  39.060671  8.019532  -4.783001  41.468537  11.227667  -40.291285  8.809204  0.000000
0.036242  0.000000  0.000000  0.000000  -26.262376  3.844945  -0.127736  39.080522  8.058875  -4.828311  41.595156  11.251094  -40.461290  8.889651  0.000000
0.036710  0.000000  0.000000  0.000000  -26.373045  3.792442  -0.093280  39.109265  8.098260  -4.874680  41.696631  11.273669  -40.613570  8.977612  0.000000
0.037179  0.000000  0.000000  0.000000  -26.484653  3.739875  -0.056556  39.145238  8.134310  -4.918558  41.763135  11.293698  -40.734493  9.066400  0.000000
0.037647  0.000000  0.000000  0.000000  -26.597162  3.687280  -0.017609  39.187590  8.167057  -4.960156  41.797341  11.311459  -40.825777  9.155856  0.000000
0.038115  0.000000  0.000000  0.000000  -26.710568  3.634689  0.023585  39.235078  8.196592  -4.999635  41.802421  11.327173  -40.889273  9.245833  0.000000
0.038583  0.000000  0.000000  0.000000  -26.824884  3.582135  0.067091  39.286268  8.223045  -5.037121  41.781743  11.341005  -40.926900  9.336214  0.000000
0.039051  0.000000  0.000000  0.000000  -26.940117  3.529646  0.112984  39.339748  8.246559  -5.072724  41.738588  11.353091  -40.940603  9.426918  0.000000
0.039519  0.000000  0.000000  0.000000  -27.056257  3.477251  0.161315  39.394304  8.267278  -5.106564  41.675943  11.363557  -40.932327  9.517905  0.000000
0.040082  0.000000  0.000000  0.000000  -27.197005  3.414431  0.222646  39.460033  8.288669  -5.145125  41.578518  11.374188  -40.896062  9.627646  0.000000
0.040645  0.000000  0.000000  0.000000  -27.338869  3.351834  0.287408  39.525098  8.306407  -5.181719  41.460521  11.382986  -40.834374  9.737824  0.000000
0.041208  0.000000  0.000000  0.000000  -27.481638  3.289511  0.355366  39.589300  8.320655  -5.216851  41.325227  11.390367  -40.751019  9.848500  0.000000
0.041770  0.000000  0.000000  0.000000  -27.625040  3.227517  0.426162  39.653006  8.331561  -5.251183  41.175729  11.396875  -40.650165  9.959723  0.000000
0.042333  0.000000  0.000000  0.000000  -27.768758  3.165915  0.499343  39.716940  8.339282  -5.285525  41.015297  11.403166  -40.536477  10.071512  0.000000
0.042896  0.000000  0.000000  0.000000  -27.912461  3.104771  0.574425  39.781933  8.343993  -5.320789  40.847592  11.409959  -40.415039  10.183846  0.000000
0.043459  0.000000  0.000000  0.000000  -28.055841  3.044159  0.650966  39.848670  8.345900  -5.357902  40.676686  11.417943  -40.291071  10.296663  0.000000
0.044075  0.000000  0.000000  0.000000  -28.212257  2.978454  0.736127  39.924146  8.345042  -5.401648  40.490779  11.428696  -40.158079  10.420715  0.000000
0.044692  0.000000  0.000000  0.000000  -28.367806  2.913567  0.822535  40.001800  8.341397  -5.449354  40.311262  11.441890  -40.032914  10.545145  0.000000
0.045308  0.000000  0.000000  0.000000  -28.522459  2.849584  0.910390  40.080630  8.335235  -5.501323  40.142123  11.457421  -39.918551  10.669900  0.000000
0.045925  0.000000  0.000000  0.000000  -28.676312  2.786578  1.000166  40.159192  8.326750  -5.557400  39.985606  11.474758  -39.815690  10.795012  0.000000
0.046541  0.000000  0.000000  0.000000  -28.829511  2.724613  1.092452  40.236042  8.316046  -5.617124  39.842193  11.493120  -39.723304  10.920602  0.000000
0.047158  0.000000  0.000000  0.000000  -28.982168  2.663752  1.187771  40.310148  8.303145  -5.679963  39.711106  11.511723  -39.639663  11.046854  0.000000
0.047774  0.000000  0.000000  0.000000  -29.134295  2.604056  1.286447  40.381111  8.288012  -5.745519  39.591046  11.529977  -39.563319  11.173982  0.000000
0.048391  0.000000  0.000000  0.000000  -29.285795  2.545591  1.388567  40.449157  8.270582  -5.813639  39.480803  11.547582  -39.493680  11.302184  0.000000
0.049007  0.000000  0.000000  0.000000  -29.436483  2.488430  1.494026  40.514960  8.250778  -5.884399  39.379559  11.564493  -39.431042  11.431617  0.000000
0.049690  0.000000  0.000000  0.000000  -29.602180  2.426729  1.614493  40.586272  8.225971  -5.966116  39.277380  11.582551  -39.370829  11.576561  0.000000
0.050271  0.000000  0.000000  0.000000  -29.742010  2.375622  1.719867  40.646447  8.202398  -6.038673  39.198419  11.597510  -39.328007  11.701312  0.000000
0.050853  0.000000  0.000000  0.000000  -29.880579  2.325885  1.827757  40.706551  8.176490  -6.114074  39.126495  11.612119  -39.293152  11.827359  0.000000
0.051434  0.000000  0.000000  0.000000  -30.017819  2.277578  1.938199  40.766654  8.148163  -6.192235  39.060973  11.626271  -39.265713  11.954730  0.000000
0.052015  0.000000  0.000000  0.000000  -30.153716  2.230759  2.051327  40.826530  8.117326  -6.272907  39.000849  11.639725  -39.244404  12.083466  0.000000
0.052597  0.000000  0.000000  0.000000  -30.288288  2.185476  2.167323  40.885769  8.083880  -6.355715  38.944830  11.652162  -39.227444  12.213615  0.000000
0.053178  0.000000  0.000000  0.000000  -30.421549  2.141779  2.286345  40.943946  8.047729  -6.440261  38.891535  11.663271  -39.212991  12.345238  0.000000
0.053618  0.000000  0.000000  0.000000  -30.521592  2.109769  2.378547  40.987109  8.018496  -6.505239  38.852214  11.670663  -39.202778  12.445942  0.000000
0.054058  0.000000  0.000000  0.000000  -30.620840  2.078715  2.472497  41.029469  7.987633  -6.570939  38.813360  11.677143  -39.192801  12.547552  0.000000
0.054499  0.000000  0.000000  0.000000  -30.719244  2.048639  2.568131  41.071076  7.955116  -6.637332  38.774745  11.682735  -39.182961  12.650085  0.000000
0.054939  0.000000  0.000000  0.000000  -30.816744  2.019562  2.665352  41.112031  7.920928  -6.704427  38.736272  11.687506  -39.173352  12.753551  0.000000
0.055379  0.000000  0.000000  0.000000  -30.913272  1.991506  2.764049  41.152461  7.885055  -6.772258  38.697950  11.691543  -39.164202  12.857954  0.000000
0.055819  0.000000  0.000000  0.000000  -31.008762  1.964492  2.864107  41.192491  7.847492  -6.840871  38.659857  11.694945  -39.155791  12.963290  0.000000
0.056380  0.000000  0.000000  0.000000  -31.128744  1.931639  2.993301  41.243016  7.797218  -6.929409  38.611832  11.698488  -39.146524  13.098736  0.000000
0.056940  0.000000  0.000000  0.000000  -31.246858  1.900546  3.124366  41.293110  7.744200  -7.019288  38.564448  11.701259  -39.139107  13.235663  0.000000
0.057501  0.000000  0.000000  0.000000  -31.363049  1.871247  3.257198  41.342678  7.688447  -7.110433  38.517655  11.703292  -39.133403  13.374055  0.000000
0.058062  0.000000  0.000000  0.000000  -31.477295  1.843770  3.391748  41.391479  7.629974  -7.202675  38.471186  11.704535  -39.128878  13.513898  0.000000
0.058622  0.000000  0.000000  0.000000  -31.589592  1.818140  3.527986  41.439201  7.568802  -7.295784  38.424629  11.704898  -39.124778  13.655193  0.000000
0.059183  0.000000  0.000000  0.000000  -31.699932  1.794377  3.665858  41.485557  7.504963  -7.389536  38.377564  11.704297  -39.120394  13.797941  0.000000
